<svg xmlns="http://www.w3.org/2000/svg" viewBox="0 0 256 256" role="img" aria-label="CD">
  <rect width="256" height="256" rx="48" fill="#070a12"/>
  <path d="M48 72h160v112H48z" fill="none" stroke="#53dbc7" stroke-width="8" opacity=".35"/>
  <path d="M74 126c0-29 19-50 47-50 17 0 30 7 39 19l-16 14c-6-8-13-12-23-12-16 0-27 12-27 29s11 29 27 29c10 0 17-4 23-12l16 14c-9 12-22 19-39 19-28 0-47-21-47-50Z" fill="#f4f7fb"/>
  <path d="M149 78h34c30 0 50 19 50 48s-20 48-50 48h-34V78Zm33 75c17 0 29-10 29-27s-12-27-29-27h-12v54h12Z" fill="#53dbc7"/>
  <path d="M36 204h184" stroke="#ffcf6f" stroke-width="8" stroke-linecap="round"/>
</svg>
